<?xml version="1.0" standalone="no"?>
<!DOCTYPE svg PUBLIC "-//W3C//DTD SVG 20010904//EN"
 "http://www.w3.org/TR/2001/REC-SVG-20010904/DTD/svg10.dtd">
<svg version="1.0" xmlns="http://www.w3.org/2000/svg"
 width="512.000000pt" height="512.000000pt" viewBox="0 0 512.000000 512.000000"
 preserveAspectRatio="xMidYMid meet">
<metadata>
Created by potrace 1.11, written by Peter Selinger 2001-2013
</metadata>
<g transform="translate(0.000000,512.000000) scale(0.100000,-0.100000)"
fill="#000000" stroke="none">
<path d="M2377 4803 c-2 -1 -23 -5 -48 -8 -107 -12 -138 -17 -209 -32 -41 -8
-85 -17 -97 -19 -12 -2 -33 -8 -47 -14 -13 -5 -27 -6 -30 -3 -3 4 -6 0 -6 -7
0 -7 -3 -11 -6 -8 -6 7 -188 -55 -269 -91 -75 -34 -186 -91 -224 -117 -19 -13
-38 -21 -43 -18 -4 3 -11 -2 -14 -10 -3 -9 -10 -13 -15 -10 -5 3 -9 1 -9 -4 0
-5 -16 -17 -35 -28 -19 -10 -35 -22 -35 -26 0 -3 -8 -9 -18 -12 -10 -4 -27
-14 -38 -24 -10 -10 -28 -24 -40 -32 -32 -23 -112 -90 -162 -137 -25 -24 -49
-43 -54 -43 -4 0 -8 -5 -8 -11 0 -6 -17 -27 -38 -48 -50 -50 -112 -120 -112
-127 0 -3 -13 -18 -30 -34 -16 -15 -27 -30 -25 -32 3 -3 -5 -16 -17 -29 -34
-36 -158 -236 -158 -254 0 -8 -4 -15 -10 -15 -5 0 -10 -6 -10 -14 0 -8 -7 -21
-15 -30 -9 -8 -16 -19 -15 -23 0 -21 -13 -43 -22 -37 -6 4 -8 2 -5 -3 4 -6 0
-27 -8 -47 -8 -20 -15 -38 -14 -41 0 -4 -6 -16 -13 -28 -8 -12 -22 -50 -33
-84 -10 -35 -21 -63 -24 -63 -4 0 -8 -9 -9 -20 -4 -43 -6 -50 -14 -50 -5 0 -8
-6 -6 -12 4 -22 -24 -138 -33 -133 -4 3 -11 0 -15 -6 -5 -8 -3 -9 6 -4 10 6
12 -3 6 -46 -4 -29 -12 -57 -18 -60 -7 -4 -7 -9 1 -13 6 -4 8 -13 4 -19 -8
-13 -10 -28 -14 -97 -1 -25 -6 -51 -12 -57 -6 -9 -6 -13 0 -13 10 0 9 -47 -1
-57 -3 -3 -1 -14 5 -24 5 -11 6 -19 2 -19 -4 0 -8 -25 -8 -55 0 -30 4 -55 9
-55 5 0 3 -6 -3 -13 -6 -8 -8 -17 -4 -20 11 -12 10 -56 -2 -49 -5 3 -4 -1 2
-9 10 -12 10 -18 0 -29 -6 -7 -7 -10 -1 -7 7 4 11 -6 12 -26 1 -18 4 -48 7
-67 3 -19 8 -57 11 -85 3 -27 11 -56 17 -64 10 -12 9 -13 -2 -6 -11 6 -12 5
-5 -6 4 -8 10 -23 12 -34 6 -35 7 -40 13 -50 3 -5 5 -21 5 -35 -1 -14 3 -28 7
-31 12 -9 28 -89 21 -101 -4 -6 -3 -8 3 -5 13 8 21 -10 18 -40 -1 -12 2 -20 7
-17 7 5 12 -13 11 -43 -1 -7 3 -10 8 -7 8 5 14 -17 10 -38 0 -5 3 -8 8 -8 8 0
24 -37 22 -52 -1 -5 4 -8 10 -8 6 0 9 -6 6 -13 -3 -7 4 -24 14 -38 10 -13 19
-31 19 -41 0 -9 5 -18 12 -20 6 -2 11 -19 11 -36 0 -18 4 -28 7 -21 9 13 9 12
58 -80 19 -35 43 -73 53 -85 18 -19 23 -31 20 -48 0 -5 2 -7 7 -5 4 1 8 -2 9
-6 1 -5 11 -17 22 -26 12 -10 21 -21 21 -25 0 -6 24 -38 53 -68 9 -10 15 -18
13 -18 -3 0 15 -21 40 -46 24 -26 41 -50 38 -55 -3 -5 0 -8 8 -7 7 2 12 -5 12
-14 -1 -10 3 -15 8 -12 5 3 21 -6 36 -20 54 -52 131 -122 166 -150 20 -15 33
-33 29 -39 -3 -5 -1 -7 5 -3 6 3 18 -1 26 -10 9 -8 16 -13 16 -9 0 4 7 0 15
-7 32 -29 131 -98 140 -98 12 0 34 -28 27 -34 -3 -4 0 -5 8 -1 8 3 31 -4 50
-15 19 -10 60 -32 90 -47 30 -15 58 -32 61 -36 3 -5 10 -9 15 -10 5 -1 8 -5 7
-8 -1 -4 7 -5 17 -2 12 3 20 0 20 -6 0 -7 4 -10 10 -6 8 5 45 -10 60 -25 3 -3
10 -5 15 -5 21 -1 95 -29 95 -36 0 -4 8 -6 18 -5 9 2 24 0 32 -5 19 -9 96 -30
135 -36 17 -3 34 -8 39 -13 5 -5 15 -6 22 -3 8 3 14 1 14 -5 0 -5 12 -7 26 -4
21 4 25 2 19 -9 -7 -11 -6 -12 6 -3 8 7 22 8 34 3 11 -4 34 -8 51 -8 33 -1 59
-22 46 -36 -4 -5 -1 -5 6 -1 10 6 10 11 2 21 -8 10 -8 13 2 11 23 -3 39 -17
32 -28 -4 -7 -2 -8 5 -4 6 4 9 11 6 16 -3 4 12 7 33 5 25 -2 36 -7 34 -16 -1
-9 3 -8 11 3 8 10 16 15 20 12 10 -11 352 -4 372 7 6 3 29 5 53 5 23 -1 42 2
42 6 0 4 15 6 34 4 19 -1 33 1 30 6 -3 4 0 8 5 8 6 0 11 -6 11 -12 0 -8 3 -9
8 -3 11 15 74 36 65 22 -5 -9 -3 -9 8 0 8 6 28 13 44 16 17 3 45 11 63 17 18
7 36 10 39 6 4 -3 13 0 22 8 9 7 27 17 40 21 18 5 22 4 17 -6 -4 -8 0 -5 8 5
9 11 16 17 16 13 0 -4 10 -2 23 5 12 7 27 13 32 13 6 1 19 6 30 12 11 6 23 11
28 12 4 0 21 8 38 17 23 11 29 12 24 2 -5 -7 2 -3 14 10 23 24 46 30 36 10 -4
-7 2 -3 12 10 13 15 25 21 36 16 12 -4 17 -2 15 7 -2 7 6 15 16 17 11 2 26 11
34 19 8 8 21 12 29 9 8 -3 11 -1 8 4 -3 6 1 10 9 10 8 0 20 8 25 18 6 9 11 14
11 10 0 -4 39 19 86 52 47 33 90 57 96 54 6 -4 8 -3 5 3 -4 6 5 19 20 29 14
11 33 27 41 36 13 14 19 15 31 5 12 -10 13 -9 7 1 -9 15 102 124 117 115 6 -3
7 -2 4 4 -8 13 47 66 58 56 4 -5 5 -3 2 3 -8 14 17 37 28 26 5 -4 5 -2 2 4 -7
13 68 100 83 97 5 -2 7 3 5 10 -3 6 5 23 18 37 12 14 44 58 72 98 33 49 54 71
63 67 11 -4 12 -2 4 7 -12 15 9 53 23 40 5 -4 5 -1 0 6 -4 8 0 25 11 41 11 14
30 49 44 76 14 28 28 51 33 53 4 2 7 9 7 15 1 17 36 88 41 83 2 -2 5 8 6 22 0
15 6 28 12 30 5 2 7 10 4 18 -3 8 -1 14 4 14 5 0 10 6 10 13 1 6 11 39 23 72
12 33 24 69 27 80 8 38 11 50 13 53 2 1 3 8 4 15 1 6 8 11 16 9 11 -3 12 0 4
8 -8 8 -6 32 7 88 9 42 19 93 20 112 2 19 5 39 8 45 3 5 6 21 7 35 12 172 15
223 15 270 -1 30 -1 63 -1 73 0 9 0 23 1 30 1 27 -16 207 -25 257 -3 14 -7 42
-10 64 -4 21 -9 42 -11 47 -3 4 -6 24 -7 44 -1 19 -4 35 -8 35 -7 0 -9 9 -13
58 -1 17 -5 32 -9 32 -5 0 -8 8 -8 18 0 10 -4 22 -10 28 -5 5 -11 26 -12 46
-2 20 -6 34 -10 31 -5 -2 -8 4 -8 15 0 10 -3 22 -7 26 -4 3 -8 12 -9 19 -4 30
-124 280 -136 285 -5 2 -8 8 -8 13 0 5 -11 27 -25 49 -14 22 -23 40 -20 40 3
0 -3 8 -12 19 -22 23 -74 98 -73 106 0 3 -8 13 -17 23 -10 10 -31 36 -48 58
-31 39 -123 144 -157 177 -10 10 -18 22 -18 27 0 6 -4 10 -9 10 -5 0 -25 15
-43 33 -58 55 -122 107 -131 107 -4 0 -5 5 -2 10 4 6 3 9 -2 8 -8 -3 -67 39
-99 70 -7 6 -15 12 -19 12 -3 0 -39 23 -80 50 -41 28 -75 48 -75 46 0 -5 -64
35 -87 54 -7 6 -13 9 -13 6 0 -3 -42 15 -92 39 -51 23 -112 48 -135 55 -24 7
-43 16 -43 19 0 4 -9 7 -19 8 -11 1 -41 9 -68 18 -26 9 -57 19 -67 21 -10 2
-33 8 -50 13 -43 14 -239 50 -311 57 -63 7 -433 13 -438 7z"/>
<path d="M4634 1606 c1 -8 5 -18 8 -22 4 -3 5 1 4 10 -1 8 -5 18 -8 22 -4 3
-5 -1 -4 -10z"/>
<path d="M4590 1519 c0 -5 5 -7 10 -4 6 3 10 8 10 11 0 2 -4 4 -10 4 -5 0 -10
-5 -10 -11z"/>
<path d="M730 1216 c0 -2 8 -10 18 -17 15 -13 16 -12 3 4 -13 16 -21 21 -21
13z"/>
<path d="M3955 761 c-3 -5 -2 -12 3 -15 5 -3 9 1 9 9 0 17 -3 19 -12 6z"/>
<path d="M3875 680 c3 -5 8 -10 11 -10 2 0 4 5 4 10 0 6 -5 10 -11 10 -5 0 -7
-4 -4 -10z"/>
<path d="M3810 660 c0 -5 5 -10 11 -10 5 0 7 5 4 10 -3 6 -8 10 -11 10 -2 0
-4 -4 -4 -10z"/>
<path d="M1490 521 c0 -6 4 -13 10 -16 6 -3 7 1 4 9 -7 18 -14 21 -14 7z"/>
<path d="M3456 461 c-3 -5 2 -15 12 -22 15 -12 16 -12 5 2 -7 9 -10 19 -6 22
3 4 4 7 0 7 -3 0 -8 -4 -11 -9z"/>
<path d="M1930 383 c0 -6 8 -17 18 -24 16 -13 16 -13 2 6 -8 11 -16 22 -17 24
-2 2 -3 0 -3 -6z"/>
<path d="M2046 342 c-3 -5 1 -9 9 -9 8 0 12 4 9 9 -3 4 -7 8 -9 8 -2 0 -6 -4
-9 -8z"/>
<path d="M2195 300 c-3 -5 -1 -10 4 -10 6 0 11 5 11 10 0 6 -2 10 -4 10 -3 0
-8 -4 -11 -10z"/>
<path d="M2853 289 c-2 -23 3 -25 10 -4 4 8 3 16 -1 19 -4 3 -9 -4 -9 -15z"/>
</g>
</svg>
